# xmcd
#
# Track frame offsets: 
#        150
#        21335
#        44360
#        65067
#        88230
#        109080
#        130965
#        150525
#        179792
#        194762
#        213717
#        236737
#        256175
#        277725
#        304977
#        330657
#
# Disc length: 4503 seconds
#
# Revision: 3
# Processed by: cddbd v1.4PL0 Copyright (c) Steve Scherf et al.
# Submitted via: ExactAudioCopy v0.95a3
#
DISCID=f7119510
DTITLE=WHITESNAKE - Best Ballads
DYEAR=1996
DGENRE=Hard Rock
TTITLE0=Is This Love
TTITLE1=Blindman
TTITLE2=Only My Soul
TTITLE3=Here I Go Again
TTITLE4=Help Me Thro' The Day
TTITLE5=Peace Lovin' Man
TTITLE6=Love Ain't No Stranger
TTITLE7=Looking For Love
TTITLE8=Hole In The Sky
TTITLE9=Lonely Days, Lonely Nights
TTITLE10=Ain't No Love In The Heart Of The City
TTITLE11=Say You Love Me
TTITLE12=Trouble
TTITLE13=Sailing Ships
TTITLE14=The Last Note Of Freedom
TTITLE15=We Wish You Well
EXTD=
EXTT0=
EXTT1=
EXTT2=
EXTT3=
EXTT4=
EXTT5=
EXTT6=
EXTT7=
EXTT8=
EXTT9=
EXTT10=
EXTT11=
EXTT12=
EXTT13=
EXTT14=
EXTT15=
PLAYORDER=
